<?xml version="1.0" encoding="utf-8"?>
<!-- Svg Vector Icons : http://www.onlinewebfonts.com/icon -->
<!DOCTYPE svg PUBLIC "-//W3C//DTD SVG 1.1//EN" "http://www.w3.org/Graphics/SVG/1.1/DTD/svg11.dtd">
<svg version="1.1" xmlns="http://www.w3.org/2000/svg" xmlns:xlink="http://www.w3.org/1999/xlink" x="0px" y="0px" viewBox="0 0 1000 1000" enable-background="new 0 0 1000 1000" xml:space="preserve">
<metadata> Svg Vector Icons : http://www.onlinewebfonts.com/icon </metadata>
<g><g transform="translate(0.000000,511.000000) scale(0.100000,-0.100000)"><path d="M1344.4,3105.6l-75.2-75.2V1768.3V508.6l64.8-62.2c90.7-93.3,251.4-90.7,336.9,2.6l64.8,70v1254.5v1257l-75.2,75.2c-51.8,51.8-101.1,75.2-158.1,75.2C1445.5,3180.8,1396.2,3157.5,1344.4,3105.6z"/><path d="M1940.5,3105.6l-75.2-75.2V1768.3V508.6l64.8-62.2c46.7-49.2,90.7-64.8,168.5-64.8s121.8,15.6,168.5,64.8l64.8,62.2v1259.6v1262.2l-75.2,75.2c-51.8,51.8-101.1,75.2-158.1,75.2C2041.6,3180.8,1992.3,3157.5,1940.5,3105.6z"/><path d="M7746.2,3105.6l-75.2-75.2V1781.2V532l75.2-75.2c98.5-98.5,225.5-101.1,324-10.4l67.4,62.2v1272.6v1272.6l-67.4,62.2C7971.7,3206.7,7844.7,3204.1,7746.2,3105.6z"/><path d="M8342.3,3105.6l-75.2-75.2V1781.2V532l75.2-75.2c98.5-98.5,235.8-103.7,326.6-10.4c72.6,70,67.4-51.8,67.4,1399.6c0,1314.1,5.2,1197.4-67.4,1270C8578.2,3209.3,8440.8,3204.1,8342.3,3105.6z"/><path d="M789.7,2786.9c-114-64.8-114-70-116.6-1005.6c0-780.1,5.2-901.9,41.5-953.8c59.6-85.5,155.5-116.6,259.2-82.9c165.9,54.4,165.9,57,165.9,1036.7v886.4l-75.2,75.2C984.1,2823.1,883,2838.7,789.7,2786.9z"/><path d="M8938.4,2742.8l-75.2-75.2v-886.4V894.8l75.2-75.2c129.6-127,313.6-95.9,381,67.4c51.8,129.6,51.8,1658.8,0,1788.4C9252,2838.7,9068,2869.8,8938.4,2742.8z"/><path d="M3723.7,2426.6c-64.8-38.9-121.8-181.4-121.8-308.4v-103.7H3099c-466.5,0-505.4-2.6-570.2-54.4c-82.9-64.8-90.7-181.4-15.6-256.6c49.2-49.2,85.5-51.8,570.2-51.8h518.4l5.2-873.5l7.8-876l173.7,264.4c95.9,145.1,202.2,282.5,238.4,308.4l67.4,41.5V1084v567.6h894.2h894.2v-552.1V547.5l88.1-44.1c54.4-25.9,150.3-121.8,241.1-241l150.3-199.6l7.8,793.1l5.2,795.7h531.3c510.6,0,531.3,2.6,583.2,57c70,75.2,64.8,165.9-13,241c-62.2,64.8-64.8,64.8-583.2,64.8h-518.4v116.6c0,279.9-220.3,422.5-404.3,264.4c-59.6-51.8-72.6-88.1-82.9-220.3l-10.4-160.7h-891.6h-891.6v145.1c0,124.4-10.4,152.9-75.2,220.3C3938.8,2460.3,3814.4,2478.4,3723.7,2426.6z"/><path d="M170.3,1960.1c-142.5-111.4-54.4-308.4,140-308.4c127,0,207.3,70,207.3,178.8c0,93.3-103.7,184-207.3,184C271.4,2014.5,209.2,1991.2,170.3,1960.1z"/><path d="M9542.3,1954.9c-75.2-77.8-72.6-160.7,7.8-238.5c119.2-121.8,349.9-44.1,349.9,119.2C9900,2004.1,9661.5,2081.9,9542.3,1954.9z"/><path d="M4141,405c-70-25.9-142.5-132.2-751.6-1096.3c-246.2-388.8-269.5-471.7-176.2-593.5c28.5-33.7,80.3-72.6,116.6-80.4l64.8-15.6v-715.3v-715.3l75.2-75.2c98.5-98.5,225.5-101.1,324-10.4l67.4,62.2v728.3v725.7h1257h1257v-686.8c0-730.9,10.4-803.5,127-868.3c85.5-44,202.2-28.5,279.9,36.3l72.6,62.2l7.8,743.8c5.2,627.3,13,743.9,46.7,756.8c49.3,18.1,114.1,142.5,114.1,222.9c0,90.7-987.5,1443.6-1093.8,1500.7c-77.8,41.5-171,46.6-902,44.1C4558.2,430.9,4179.8,417.9,4141,405z"/><path d="M3990.6-1772.2c0-373.2,44.1-461.3,241-463.9c70,0,116.6,18.2,160.7,64.8c62.2,59.6,64.8,77.8,64.8,375.8v311h-233.3h-233.3V-1772.2z"/><path d="M5784.2-1792.9c7.8-285.1,13-313.6,70-375.8c49.2-51.8,88.1-67.4,171.1-67.4c82.9,0,121.8,15.6,171,67.4c57,62.2,62.2,90.7,70,375.8l10.4,308.4h-251.4h-251.4L5784.2-1792.9z"/></g></g>
</svg>