<?xml version="1.0" standalone="no"?>
<!DOCTYPE svg PUBLIC "-//W3C//DTD SVG 20010904//EN"
 "http://www.w3.org/TR/2001/REC-SVG-20010904/DTD/svg10.dtd">
<svg version="1.0" xmlns="http://www.w3.org/2000/svg"
 width="512.000000pt" height="512.000000pt" viewBox="0 0 512.000000 512.000000"
 preserveAspectRatio="xMidYMid meet">

<g transform="translate(0.000000,512.000000) scale(0.100000,-0.100000)"
fill="#000000" stroke="none">
<path d="M2050 5109 c-37 -15 -78 -58 -91 -96 -6 -18 -14 -33 -18 -33 -20 0
-105 -88 -129 -134 l-27 -51 -3 -1042 c-3 -1137 -7 -1056 52 -1033 l26 10 0
1015 c0 1120 -4 1054 62 1123 37 37 44 39 53 12 4 -12 25 -33 48 -48 39 -26
46 -27 204 -31 l163 -3 0 -820 0 -820 23 6 c12 4 46 12 75 18 l52 12 0 127 c0
113 -2 128 -20 144 -11 10 -20 28 -20 40 0 12 9 34 20 48 20 25 20 40 20 636
l0 611 30 0 30 0 0 -611 c0 -596 0 -611 20 -636 11 -14 20 -33 20 -43 0 -10
-9 -29 -20 -43 -18 -22 -20 -40 -20 -149 l0 -124 53 -12 c28 -6 62 -14 75 -18
l22 -6 0 820 0 820 163 4 c146 3 166 6 198 25 19 12 41 34 49 48 7 14 17 25
21 25 16 0 76 -82 87 -119 9 -28 12 -310 12 -1045 l0 -1006 26 -10 c59 -23 55
-104 52 1028 -3 1028 -3 1037 -24 1082 -26 55 -68 107 -109 131 -16 10 -41 40
-55 65 -50 95 -11 89 -588 91 -322 1 -516 -2 -532 -8z m130 -99 c40 -40 15
-110 -39 -110 -32 0 -44 8 -60 37 -16 31 -14 41 14 68 29 30 58 32 85 5z m858
4 c15 -10 22 -25 22 -46 0 -66 -69 -92 -109 -41 -24 30 -20 58 11 86 25 21 47
22 76 1z"/>
<path d="M2121 4976 c-16 -19 -6 -36 20 -36 15 0 20 6 17 22 -4 27 -21 33 -37
14z"/>
<path d="M2980 4975 c-15 -17 -5 -35 20 -35 22 0 33 23 17 39 -15 15 -22 14
-37 -4z"/>
<path d="M2190 3848 l1 -923 24 45 24 45 1 878 0 877 -25 0 -25 0 0 -922z"/>
<path d="M2900 3896 l0 -874 25 -54 25 -53 0 928 0 927 -25 0 -25 0 0 -874z"/>
<path d="M2480 3134 c-105 -28 -186 -98 -232 -201 -34 -73 -32 -199 3 -274 15
-31 43 -75 64 -98 l37 -41 216 0 215 0 37 39 c47 49 78 113 92 189 31 167 -86
343 -257 387 -72 18 -103 18 -175 -1z"/>
<path d="M2040 2733 c-46 -5 -148 -29 -183 -42 -28 -11 -28 -11 -11 -43 9 -18
17 -34 18 -35 1 -1 31 7 66 18 36 11 109 23 163 26 l97 6 0 -81 c0 -80 0 -81
23 -73 32 12 33 57 4 117 -14 27 -28 64 -32 82 -6 31 -8 32 -58 30 -29 0 -68
-3 -87 -5z"/>
<path d="M2950 2699 c-7 -24 -21 -61 -31 -81 -10 -20 -19 -53 -19 -71 0 -29 4
-35 25 -39 25 -5 25 -5 25 75 l0 80 98 -6 c53 -3 126 -15 162 -26 35 -11 64
-19 65 -18 0 1 8 17 18 35 l18 32 -28 11 c-53 20 -150 39 -235 45 l-86 7 -12
-44z"/>
<path d="M1654 2676 c-48 -21 -74 -61 -74 -115 0 -73 75 -614 89 -639 17 -31
69 -62 106 -62 38 0 72 21 160 100 39 34 103 89 143 122 l72 59 0 -373 0 -373
-129 -26 c-139 -29 -175 -46 -210 -102 -24 -39 -231 -924 -231 -989 0 -91 90
-178 183 -178 69 0 143 43 172 100 7 14 52 196 100 405 48 209 93 385 99 391
6 6 108 29 226 52 l215 40 214 -41 c182 -36 215 -45 222 -62 5 -11 47 -186 94
-388 47 -202 92 -381 100 -396 19 -38 66 -77 111 -91 108 -36 229 41 241 153
7 56 -197 942 -230 1002 -31 55 -81 80 -219 106 l-118 23 0 368 c0 202 3 368
6 368 9 0 116 -88 224 -184 92 -82 125 -96 184 -76 68 22 73 39 117 367 21
163 39 311 39 329 0 47 -38 97 -88 112 -37 12 -46 12 -79 -5 -63 -31 -71 -51
-97 -246 -14 -99 -27 -181 -29 -184 -3 -2 -30 15 -59 39 -99 81 -189 141 -246
164 -56 23 -64 24 -392 23 -255 0 -344 -3 -373 -13 -55 -20 -137 -72 -235
-149 -75 -59 -88 -66 -94 -50 -4 10 -16 92 -28 183 -12 93 -28 175 -36 187
-31 49 -99 71 -150 49z"/>
<path d="M1458 2537 c-61 -23 -65 -30 -46 -72 8 -18 17 -24 27 -19 9 3 36 13
59 21 37 13 43 19 38 37 -3 11 -6 29 -6 39 0 21 -1 21 -72 -6z"/>
<path d="M3606 2524 c-4 -20 -6 -37 -4 -39 3 -4 107 -45 112 -45 4 0 26 58 26
67 0 4 -73 36 -106 47 -19 6 -23 2 -28 -30z"/>
<path d="M1815 1821 l-30 -6 -3 -254 -2 -254 39 34 39 34 1 228 c1 125 -2 226
-6 226 -5 -1 -21 -4 -38 -8z"/>
<path d="M3280 1603 l0 -228 34 -27 c19 -16 37 -28 40 -28 4 0 6 110 6 245 0
188 -3 247 -12 249 -7 3 -25 7 -40 10 l-28 6 0 -227z"/>
<path d="M2358 1001 c-103 -21 -190 -39 -192 -42 -2 -2 -7 -23 -11 -46 l-7
-43 161 0 161 0 0 -345 c0 -190 -3 -345 -7 -345 -5 -1 -119 -9 -254 -18 l-245
-18 -41 -33 c-39 -31 -115 -61 -157 -61 -36 0 -92 19 -129 44 l-36 25 -183
-14 c-101 -8 -186 -15 -190 -15 -5 0 -8 -20 -8 -45 l0 -45 1340 0 1340 0 0 45
c0 25 -1 45 -2 45 -2 1 -84 7 -182 14 l-180 13 -34 -24 c-91 -61 -201 -53
-291 23 -31 25 -38 27 -284 45 -138 10 -255 19 -259 19 -5 0 -8 155 -8 345 l0
345 166 0 166 0 -7 38 c-3 20 -12 42 -18 48 -12 11 -370 85 -404 83 -10 0
-102 -18 -205 -38z"/>
<path d="M2190 515 l0 -295 25 0 25 0 0 295 0 295 -25 0 -25 0 0 -295z"/>
<path d="M2900 515 l0 -295 25 0 25 0 0 295 0 295 -25 0 -25 0 0 -295z"/>
</g>
</svg>
